<?xml version="1.0" encoding="utf-8"?>
<!-- Generator: Adobe Illustrator 16.0.0, SVG Export Plug-In . SVG Version: 6.00 Build 0)  -->
<!DOCTYPE svg PUBLIC "-//W3C//DTD SVG 1.1//EN" "http://www.w3.org/Graphics/SVG/1.1/DTD/svg11.dtd">
<svg version="1.1" id="_x34_4ab1b28-df60-43dd-96f3-344df6392e15"
	 xmlns="http://www.w3.org/2000/svg" xmlns:xlink="http://www.w3.org/1999/xlink" x="0px" y="0px" width="1091.781px"
	 height="828.58px" viewBox="0 0 1091.781 828.58" enable-background="new 0 0 1091.781 828.58" xml:space="preserve">
<g>
	<path opacity="0.1" fill="#6C63FF" enable-background="new    " d="M1077.89,239.01c-0.189,0.89-0.371,1.78-0.58,2.66
		c-6.561,30.25-17.279,59.4-33.221,86.17c-0.529,0.89-1.059,1.78-1.6,2.67c-10.51,17.224-23.088,33.098-37.449,47.27
		c-7.939,7.84-16.6,15.29-26.9,20.661c-14.43,7.54-31.301,10.6-47.881,13.1c-17.219,2.61-34.68,4.79-52.09,7.14
		c-6.186,0.82-12.336,1.69-18.449,2.61c-16.82,2.49-33.52,5.37-49.82,9.19c-20.15,4.71-39.68,10.88-58.131,19.56
		c-1.473,0.667-2.93,1.373-4.369,2.12c-1.439,0.72-2.891,1.45-4.311,2.189c-1.42,0.74-2.82,1.48-4.209,2.24
		c-0.721,0.391-1.439,0.78-2.15,1.19s-1.41,0.77-2.1,1.17c-2.08,1.16-4.121,2.35-6.16,3.55l-0.08,0.05c-1.35,0.79-2.68,1.601-4,2.41
		c-7.541,4.58-14.92,9.36-22.301,14.17l-4.639,3l-7.191,4.65c-1.398,0.909-2.83,1.819-4.24,2.72c-1,0.66-2,1.32-3.09,2
		c-5.238,3.3-10.549,6.54-16,9.63c-1.289,0.74-2.59,1.48-3.898,2.2c-11.012,6.143-22.527,11.335-34.42,15.52l-0.16,0.061
		c-5.984,2.087-12.088,3.811-18.281,5.16c-3.57,0.779-7.15,1.42-10.77,1.909c-9.676,1.372-19.488,1.51-29.199,0.41
		c-19.07-2.21-36.941-9.53-56-12c-39.24-5-77.351,11.11-114.25,23.73c-9.073,3.1-18.214,6.003-27.42,8.71
		c-6.12,1.81-12.261,3.52-18.45,5.17c-37.924,10.02-76.629,16.808-115.7,20.29c-16.333,1.601-32.763,1.965-49.15,1.09
		c-6.23-0.38-12.39-1-18.44-2c-20.7-3.2-40-9.91-55.58-22.2c-12.76-10.09-21.89-23.239-28.84-37
		c-7.115-14.04-12.138-29.046-14.91-44.54c-0.38-2.109-0.72-4.229-1-6.35c-0.5-3.627-0.874-7.273-1.12-10.94
		c-1.345-19.544,0.988-39.166,6.88-57.85c6.6-20.92,17.6-41,22.44-62.08c0.2-0.893,0.39-1.783,0.57-2.67
		c0.661-3.202,1.152-6.437,1.47-9.69c2.47-25.9-7-51.15-14.43-76.48c-0.26-0.88-0.52-1.77-0.77-2.66
		c-0.8-2.813-1.567-5.623-2.3-8.43c-6.88-26.78-8.79-55.45-2.66-82.18c0.19-0.89,0.42-1.78,0.64-2.66
		c4.104-16.896,11.821-32.703,22.62-46.33c11.48-14.4,26.55-26.39,42.65-36.92c7.847-5.133,15.96-9.93,24.34-14.39
		c6-3.2,12.146-6.23,18.44-9.09c50.45-23,108-34.23,164.91-31.75c3,0.13,6,0.29,9,0.51c3,0.22,6.28,0.48,9.42,0.77
		c36.66,3.56,72.33,12.15,107.75,21.54c11.87,3.15,23.721,6.38,35.561,9.55c5.27,1.4,10.53,2.8,15.8,4.16
		c25.81,6.67,52,12.71,78.521,17.22c6.139,1.06,12.285,2.027,18.439,2.9c21.363,3.14,42.9,4.967,64.49,5.47
		c8.393,0.167,16.789,0.093,25.189-0.22c4.24-0.153,8.482-0.383,12.73-0.69c43.85-3.09,86.229-13.43,128.68-23.09
		c6.141-1.4,12.289-2.78,18.449-4.14c8.08-1.78,16.16-3.5,24.281-5.09c50.529-9.93,95.568-4.22,142.549,16.27
		c10.68,4.65,21.35,10.27,27.891,19c6.539,8.73,8.18,19.45,9.4,29.8c1.73,14.74,2.859,29.67,3.289,44.68c0,0.88,0,1.77,0.061,2.66
		C1086.32,178.79,1084.06,209.4,1077.89,239.01z"/>
	<path opacity="0.1" fill="#6C63FF" enable-background="new    " d="M742.71,327.84h-3.301v1.18v1.49h3.74L742.71,327.84z
		 M705.281,327.84c-0.006,0.023-0.006,0.047,0,0.07c-0.09,0.73-0.191,1.46-0.291,2.2v0.2v0.2h28.6v-0.16l2-2.51H705.281z
		 M628.63,327.84v-86.17h32.9c-0.352-0.23-0.711-0.47-1.08-0.69l-0.48-0.31l-0.621-0.38c-0.359-0.21-0.719-0.42-1.1-0.62
		c-0.379-0.2-0.609-0.34-0.93-0.51l-0.221-0.12h-0.049h-28.42v-4.75l-0.77,0.3l-0.811,0.38h-0.061l-0.17,0.09l-0.51,0.27l-0.51,0.27
		c-0.5,0.27-1,0.57-1.5,0.88l-0.48,0.32l-1,0.64c-1.289,0.86-2.561,1.76-3.869,2.6c-0.33,0.21-0.66,0.42-1,0.61
		c-0.711,0.42-1.441,0.82-2.191,1.18c-0.318,0.16-0.629,0.3-1,0.43l-0.539,0.21l-0.5,0.17l0,0c-1.174,0.408-2.377,0.722-3.6,0.94
		v84.24h-49.33c0,0.1,0.07,0.18,0.1,0.28c0.27,0.8,0.539,1.59,0.801,2.39h48.5v92.36c0.252,0,0.502,0,0.75,0l0.869,0.051l1.57,0.09
		l2.51,0.3l1.15,0.11l1.25,0.13h0.189l2.211,0.27l0.469,0.061l1.07,0.149l1.529,0.22l0,0l3.67-0.159l0,0l0.5,0.09
		c0.201,0,0.41,0.06,0.621,0.1v-93.75h76.34v-0.2v-0.2c0.1-0.74,0.199-1.47,0.289-2.2c-0.004-0.023-0.004-0.047,0-0.07H628.63z
		 M742.71,327.84h-3.301v1.18v1.49h3.74L742.71,327.84z M703.22,327.84c-0.121,0.89-0.23,1.78-0.35,2.67h31.889l2.17-2.67H703.22z
		 M628.63,327.84v-86.17h32.9c-0.352-0.23-0.711-0.47-1.08-0.69l-0.48-0.31l-0.621-0.38c-0.359-0.21-0.719-0.42-1.1-0.62
		c-0.379-0.2-0.609-0.34-0.93-0.51l-0.221-0.12h-0.068h-28.4v-4.75l-0.77,0.3l-0.811,0.38h-0.061l-0.17,0.09l-0.51,0.27l-0.51,0.27
		c-0.5,0.27-1,0.57-1.5,0.88l-0.48,0.32l-1,0.64c-1.289,0.86-2.561,1.76-3.869,2.6c-0.33,0.21-0.66,0.42-1,0.61
		c-0.711,0.42-1.441,0.82-2.191,1.18c-0.318,0.16-0.629,0.3-1,0.43l-0.539,0.21l-0.5,0.17l0,0c-1.174,0.408-2.377,0.722-3.6,0.94
		v84.24h-49.33c0,0.1,0.07,0.18,0.1,0.28c0.27,0.79,0.551,1.59,0.811,2.39h48.49v92.35h0.75l0.869,0.05l1.57,0.09l2.51,0.311
		l1.15,0.11l1.25,0.13h0.189l2.211,0.27l0.469,0.061l1.07,0.149l1.529,0.22l0,0l3.67-0.159l0,0l0.5,0.09
		c0.201,0,0.41,0.06,0.621,0.1v-93.75h74.34c0.119-0.89,0.23-1.78,0.35-2.67H628.63z M878.169,148.4h207.471
		c0-0.89,0-1.78-0.061-2.66h-207.41V41.12c-6.16,1.333-12.309,2.713-18.449,4.14v100.48H634.08l-0.57-0.51l0.861-0.76l0,0
		l83.93-75.42c-8.4,0.32-16.797,0.394-25.189,0.22l-64.49,57.94V63.82c-6.16-0.873-12.307-1.84-18.441-2.9v63.37l-94.29-84.75
		c-11.84-3.17-23.689-6.4-35.56-9.55l128.23,115.24l-0.57,0.51h-235.4V8.54c-3.14-0.293-6.28-0.55-9.42-0.77c-3-0.22-6-0.38-9-0.51
		v138.48H189.23V39.01c-6.227,2.854-12.374,5.884-18.44,9.09v97.64H81.18c-0.22,0.88-0.45,1.77-0.64,2.66h90.25v90.61H85.5
		c0.25,0.89,0.51,1.78,0.77,2.66h84.52v86.17H99.23c-0.18,0.887-0.37,1.777-0.57,2.67h72.13V571.44c6,0.93,12.21,1.579,18.44,2
		V330.51h164.91v221.53c6.19-1.65,12.33-3.36,18.45-5.17V330.51h237.601v193.55c6.191-1.349,12.295-3.072,18.279-5.159l0.16-0.061
		V330.51h231.09v90.78c6.133-0.9,12.283-1.764,18.449-2.59v-88.19h164.32c0.541-0.89,1.07-1.78,1.6-2.67h-165.92v-86.17h199.141
		c0.209-0.88,0.391-1.77,0.58-2.66H878.169V148.4z M189.23,148.4h164.91v90.61H189.23V148.4z M189.23,327.84v-86.17h164.91v86.17
		H189.23z M372.59,148.4h237.601v90.61H372.59V148.4z M372.59,327.84v-86.17h237.601v86.17H372.59z M859.72,327.84H628.63v-86.17
		h231.09V327.84z M859.72,239.01H628.63v-88.18l3.24-2.43h227.85V239.01z M705.281,327.84c-0.006,0.023-0.006,0.047,0,0.07
		c-0.09,0.73-0.191,1.46-0.291,2.2v0.2v0.2h28.6v-0.16l2-2.51H705.281z M742.71,327.84h-3.301v1.18v1.49h3.74L742.71,327.84z
		 M628.63,327.84v-86.17h32.9c-0.352-0.23-0.711-0.47-1.08-0.69l-0.48-0.31l-0.621-0.38c-0.359-0.21-0.719-0.42-1.1-0.62
		c-0.379-0.2-0.609-0.34-0.93-0.51l-0.221-0.12h-0.049h-28.42v-4.75l-0.77,0.3l-0.811,0.38h-0.061l-0.17,0.09l-0.51,0.27l-0.51,0.27
		c-0.5,0.27-1,0.57-1.5,0.88l-0.48,0.32l-1,0.64c-1.289,0.86-2.561,1.76-3.869,2.6c-0.33,0.21-0.66,0.42-1,0.61
		c-0.711,0.42-1.441,0.82-2.191,1.18c-0.318,0.16-0.629,0.3-1,0.43l-0.539,0.21l-0.5,0.17l0,0c-1.174,0.408-2.377,0.722-3.6,0.94
		v84.24h-49.33c0,0.1,0.07,0.18,0.1,0.28c0.27,0.8,0.539,1.59,0.801,2.39h48.5v92.36c0.252,0,0.502,0,0.75,0l0.869,0.051l1.57,0.09
		l2.51,0.3l1.15,0.11l1.25,0.13h0.189l2.211,0.27l0.469,0.061l1.07,0.149l1.529,0.22l0,0l3.67-0.159l0,0l0.5,0.09
		c0.201,0,0.41,0.06,0.621,0.1v-93.75h76.34v-0.2v-0.2c0.1-0.74,0.199-1.47,0.289-2.2c-0.004-0.023-0.004-0.047,0-0.07H628.63z"/>
	<path opacity="0.1" fill="#6C63FF" enable-background="new    " d="M268.52,86.02h1.43c-0.96-0.406-1.628-1.295-1.75-2.33l0,0
		c0-1.84,2.75-3.34,6.11-3.34h42.76c3.359,0,6.1,1.5,6.1,3.34l0,0c0,1.83-2.74,3.34-6.1,3.34h-1.431
		c0.961,0.399,1.631,1.287,1.75,2.32c0,1.57-2,2.89-4.67,3.24h12.311c3.35,0,6.1,1.5,6.1,3.34c0,1.84-2.75,3.34-6.1,3.34H282.26
		c-3.35,0-6.1-1.51-6.1-3.34c0-1.57,2-2.88,4.67-3.24h-12.31c-3.36,0-6.1-1.5-6.1-3.34C262.42,87.51,265.16,86.02,268.52,86.02z"/>
	<path opacity="0.1" fill="#6C63FF" enable-background="new    " d="M731.96,117.79h1.43c-0.955-0.409-1.619-1.298-1.74-2.33l0,0
		c0-1.84,2.74-3.34,6.1-3.34h42.76c3.361,0,6.111,1.5,6.111,3.34l0,0c0,1.83-2.75,3.33-6.111,3.33h-1.42
		c0.957,0.409,1.619,1.298,1.74,2.33c0,1.57-2,2.89-4.67,3.24h12.311c3.359,0,6.1,1.5,6.1,3.34c0,1.84-2.74,3.34-6.1,3.34h-42.76
		c-3.361,0-6.111-1.51-6.111-3.34c0-1.57,2-2.89,4.67-3.24H731.96c-3.35,0-6.1-1.5-6.1-3.34
		C725.861,119.28,728.611,117.79,731.96,117.79z"/>
	<path opacity="0.1" fill="#6C63FF" enable-background="new    " d="M202.89,253.75h1.42c-0.957-0.407-1.622-1.297-1.74-2.33l0,0
		c0-1.83,2.75-3.34,6.1-3.34h42.77c3.35,0,6.1,1.51,6.1,3.34l0,0c0,1.84-2.75,3.34-6.1,3.34h-1.43c0.958,0.4,1.624,1.288,1.74,2.32
		c0,1.57-2,2.89-4.67,3.24h12.31c3.36,0,6.11,1.51,6.11,3.34s-2.75,3.34-6.11,3.34h-42.72c-3.36,0-6.1-1.5-6.1-3.34
		c0-1.56,2-2.88,4.67-3.24h-12.35c-3.36,0-6.11-1.5-6.11-3.34S199.57,253.75,202.89,253.75z"/>
	
		<ellipse transform="matrix(-0.9798 -0.2002 0.2002 -0.9798 1467.4452 1283.0138)" opacity="0.1" fill="#6C63FF" enable-background="new    " cx="798.601" cy="567.302" rx="213.77" ry="64.959"/>
	<path fill="#1F558D" d="M774.451,384.88c0,0,11.369-55.81,54.779-50.64c0,0,30,2.06,36.17,21.7v43.41L774.451,384.88z"/>
	<polygon fill="#D48A9B" points="1012.179,405.56 625.611,373.51 576,383.85 579.099,453.1 582.48,453.51 586.33,557.5 
		965.66,625.71 1005.98,591.6 1005.98,478.87 1011.14,475.84 	"/>
	<polygon opacity="0.05" enable-background="new    " points="1012.701,405.56 1011.66,475.84 969.8,495.48 969.281,422.09 	"/>
	<polygon opacity="0.05" enable-background="new    " points="1005.98,478.94 1006.49,589.54 966.179,623.65 968.769,495.48 	"/>
	<polygon opacity="0.05" enable-background="new    " points="583,457.65 969.08,504.76 969.281,495.82 582.71,454.13 	"/>
	<polygon opacity="0.05" enable-background="new    " points="1005.98,483 1005.98,478.94 967.73,495.82 967.73,504.78 	"/>
	<polygon fill="#EFC6CD" points="575.48,383.85 625.089,373.51 1011.66,405.56 968.25,422.09 	"/>
	<polygon opacity="0.1" enable-background="new    " points="970.48,407.55 989.451,408.79 958.009,418.2 942,417.05 	"/>
	<polygon fill="#FFFFFF" points="970.48,406.72 989.451,407.96 958.009,417.38 942,416.22 	"/>
	<path fill="#D3DAE1" d="M968.21,408.85c0.75-0.319,1.539,0.29,2.34,0.44c0.459,0.09,0.93,0,1.391,0.09
		c0.93,0.12,1.85,0.74,2.738,0.43"/>
	<path fill="#D3DAE1" d="M967.23,409.42c0.74-0.32,1.539,0.28,2.34,0.44c0.461,0.08,0.93,0,1.391,0.08
		c0.93,0.13,1.85,0.75,2.74,0.439"/>
	<path fill="#D3DAE1" d="M964.97,410.56c0.75-0.319,1.549,0.28,2.35,0.431c0.449,0.09,0.93,0,1.381,0.09
		c0.939,0.13,1.859,0.75,2.74,0.43"/>
	<polygon opacity="0.1" enable-background="new    " points="888.48,398.21 907.451,399.46 876.009,408.87 860,407.71 	"/>
	<polygon fill="#FFFFFF" points="888.48,397.39 907.451,398.63 876.009,408.04 860,406.89 	"/>
	<path fill="#D3DAE1" d="M886.21,399.52c0.75-0.319,1.539,0.28,2.34,0.44c0.459,0.08,0.93,0,1.391,0.08
		c0.93,0.13,1.85,0.75,2.738,0.44"/>
	<path fill="#D3DAE1" d="M885.23,400.09c0.74-0.32,1.539,0.28,2.34,0.43c0.461,0.091,0.93,0,1.391,0.091
		c0.93,0.13,1.85,0.75,2.74,0.43"/>
	<path fill="#D3DAE1" d="M882.97,401.22c0.75-0.319,1.549,0.29,2.35,0.44c0.449,0.09,0.93,0,1.381,0.09
		c0.939,0.12,1.859,0.75,2.74,0.43"/>
	<polygon opacity="0.1" enable-background="new    " points="927.81,402.88 946.791,404.12 915.349,413.54 899.33,412.38 	"/>
	<polygon fill="#FFFFFF" points="927.81,402.06 946.791,403.3 915.349,412.71 899.33,411.55 	"/>
	<path fill="#D3DAE1" d="M925.541,404.19c0.75-0.32,1.549,0.279,2.35,0.43c0.449,0.09,0.92,0,1.379,0.09
		c0.932,0.12,1.861,0.75,2.74,0.43"/>
	<path fill="#D3DAE1" d="M924.56,404.75c0.75-0.32,1.551,0.29,2.35,0.44c0.451,0.09,0.92,0,1.381,0.09
		c0.93,0.12,1.859,0.75,2.74,0.43"/>
	<path fill="#D3DAE1" d="M922.31,405.89c0.74-0.319,1.539,0.28,2.34,0.44c0.461,0.08,0.93,0,1.391,0.08
		c0.93,0.13,1.85,0.75,2.74,0.439"/>
	<ellipse opacity="0.1" fill="#6C63FF" enable-background="new    " cx="498.32" cy="749.7" rx="202.48" ry="41.68"/>
	
		<linearGradient id="SVGID_1_" gradientUnits="userSpaceOnUse" x1="581.2173" y1="18.0259" x2="581.2173" y2="603.5005" gradientTransform="matrix(1 0 0 -1 -54.1099 793.8701)">
		<stop  offset="0" style="stop-color:#808080;stop-opacity:0.25"/>
		<stop  offset="0.54" style="stop-color:#808080;stop-opacity:0.12"/>
		<stop  offset="1" style="stop-color:#808080;stop-opacity:0.1"/>
	</linearGradient>
	<path fill="url(#SVGID_1_)" d="M720.05,408.38c-2.16-18.98-10.711-37.09-10.711-37.09l0.65-6.4c0,0,0.141-3.2-0.07-8
		c0.023-2.997,0.416-5.979,1.17-8.88c1.75-5.55-2.189-12.37-2.629-13c-0.441-0.63,0.219-12.8-3.721-18.77
		c-3.939-5.97-30.18-17.07-30.18-17.07s-1.41-2.95-3.4-6.4l0.18-0.35c-1.627-2.954-3.646-5.675-6-8.09
		c-1.609-1.72-3.16-2.7-4.41-2.22c-0.508-1.66-0.895-3.354-1.158-5.07c0.26,0.07,0.529,0.14,0.789,0.19
		c1.084,0.251,2.205,0.278,3.301,0.08c2.439-0.55,4.059-2.74,5.42-4.8c6.779-10.3,12.619-21.6,13.809-33.79
		c0.32-2.488,0.201-5.013-0.35-7.46c-0.562-1.902-1.348-3.731-2.34-5.45c-1.752-3.525-3.973-6.798-6.6-9.73
		c-4.67-4.92-11.109-7.93-17.73-9.71c-7.457-2.006-15.227-2.586-22.9-1.71c-2,0.23-4,0.56-6,0.69
		c-2.537,0.112-5.078,0.068-7.609-0.13l-13.09-0.76l-0.061-0.2l-2.18-0.13c-0.859,1.71,0,3.74,1.07,5.34
		c1.07,1.6,2.299,3.271,2.209,5.16c-0.09,1.89-1.459,3.41-2.529,5s-1.881,3.67-0.811,5.23c0.15,0.216,0.33,0.411,0.531,0.58
		c1.129,1.17,3.1,1.3,4.809,1.28h0.301c-4.307,5.672-6.635,12.599-6.631,19.72c0.061,12.406,7.039,23.742,18.092,29.38
		c0.189,0.65,0.379,1.32,0.559,2c1.982,7.024,2.693,14.346,2.1,21.62l-0.229,0.5l-0.141-0.53c0,0-15.42,10.46-20,13.23
		s-9.18,12.16-9.4,14.72c-0.219,2.56-7.439,41.17-7.439,41.17c-1.467,3.89-2.678,7.872-3.621,11.92l-9.209,8.09
		c0,0-19,1.71-24.5,0.43l0.16,1.06c-4.85-1.107-9.791-1.776-14.76-2c-2.715-0.349-5.473,0.02-8,1.07l-0.19,0.09l-0.149,0.07
		c-2.896,0.396-5.723,1.19-8.4,2.36c-0.32,0.13-0.61,0.26-0.89,0.39l0.06-1.31l-20.56-1.06l-10.5-2.13c0,0-3.721-3-5.91-2.56
		c-2.19,0.44-6.78-2.56-6.78-2.56c-1.047-0.821-2.181-1.525-3.38-2.1c-0.35-2.42-0.57-3.89-0.57-3.89s-8.17-32.42-14.289-51.48
		c-4.101-12.73-10-19-13.48-21.73c-1.55-2.7-2.57-4.44-2.57-4.44c-0.67-2.34-4.35-7.61-5.29-7.74c-0.149-0.24-0.26-0.36-0.319-0.36
		c-0.201-0.021-0.404,0.01-0.59,0.09c-1.721-8.56-2.721-19.29-0.091-28.64c7.29-5.991,11.522-14.925,11.54-24.36
		c0-0.14,0-0.28,0-0.42s0-0.29,0-0.43c-0.002-7.432-2.634-14.623-7.43-20.3l-0.34-0.38c0.091-0.064,0.178-0.135,0.26-0.21
		c1.531-1.242,2.257-3.224,1.89-5.16c-0.449-1.92-1.949-3.43-2.72-5.25c-0.462-1.401-0.833-2.831-1.109-4.28
		c-0.59-2.059-1.671-3.943-3.15-5.49l0.15,0.4c-3.921-4.41-10.66-6.6-16.73-5.62c-4.51,0.72-8.71,2.82-13.24,3.47
		c-3.25,0.46-6.56,0.16-9.83,0.49c-3.033,0.312-5.987,1.166-8.72,2.52c-0.714,0.304-1.347,0.769-1.85,1.36
		c-0.466,0.792-0.777,1.663-0.92,2.57c-1.11,4.05-4.631,6.94-7.181,10.32c-2.912,3.861-4.599,8.509-4.84,13.34
		c-0.1,1.228,0.02,2.463,0.35,3.65c0.221,0.71,0.561,1.38,0.721,2.1c0.5,2.2-0.65,4.39-1.21,6.57
		c-0.706,2.781-0.456,5.718,0.71,8.34c3.95,8.84,16.92,11.79,19.62,21.07c2.065,0.95,4.248,1.622,6.489,2
		c0.181,0.92,0.341,1.85,0.471,2.79c-0.062,0.026-0.118,0.06-0.17,0.1c-3.5,3.41-4.37,10-4.37,10l-0.42,0.34
		c-1.431,1.18-6.32,5.14-10.74,8.19c-5.25,3.63-14,15.79-20.12,19.42c-6.12,3.63-11.16,26-9.84,34.13s6.78,30.93,4.59,39.25
		c-2.19,8.32,3.28,46.29,3.28,46.29c3.67,0.699,7.262,1.765,10.72,3.18l-0.11,1.66l-0.329,5c0,0-9.91,35.84-6.12,63.43
		c3.79,27.591-1.75,30.431-1.75,30.431s1.159,12.229-1.75,16.5c-2.91,4.27-3.5,13.649-3.5,13.649s-0.29,21.051,0.29,27
		c0.58,5.95,0.869,16.79-1.17,19.351c-2.041,2.56-5.83,19.33-5.541,24.45c0.29,5.119-7.289,16.789-3.209,31.859
		c4.079,15.07-12,15.36-12,15.36s2.05,23,6.42,29.58l0.64,0.939c-0.11,0.38-0.22,0.78-0.34,1.21c-1.65,6-3.91,15.471-2.34,17.761
		c2.33,3.42,3.5,2.84,3.5,2.84l0.87,15.359c0,0,17.5,14.79,30.92,14.23c13.42-0.561,10.79-14.23,10.79-14.23l-11.431-29.64l-0.39-1
		l12.7-24c0,0,3.5-10.52,4.37-14.22c0.869-3.7,5.619-16.811,5.619-16.811s12-28.439,12.25-31.859c0.25-3.421,1.17-21.891,3.5-25.601
		s8.75-25,8.75-25l0.16,0.141c2.22,2.18,3.058,5.405,2.181,8.39c-1.471,5.4-0.591,16.49-0.591,16.49s-0.58,9.39-1.75,14.229
		s-1.449,44.37,0.591,53.75c1.63,7.51,1.579,21.57,1.5,26.891c-1.37,5.649-2.57,12.67-0.341,13.5
		c3.801,1.43,23.051,1.14,23.051,1.14s8.159-2.85,19.25,7.11c11.09,9.96,45.199-2.841,45.199-2.841s10.5-2.85-10.21-11.09
		c-14.449-5.75-23.779-9.58-29.88-13.68c0.141-0.271,0.29-0.54,0.42-0.83c0,0-8.46-8-1.46-22.18c7-14.181,6.71-26.17,6.71-26.17
		l1.17-47.79l-3.5-63.44l-2.71-66.58l0.48-0.16c0.46,12.24,2.85,41.38,15.359,35.73c15.75-7.11,2.33-25.601,2.33-25.601
		l-7.069-13.779l2.109-0.721l-7.909-25.56c-0.76-4.988-0.86-10.056-0.301-15.07c0.157-2.934,0.097-5.875-0.18-8.8
		c10.36-1.81,20.28-3.729,22.061-3.29c2.1,0.51,13.85,0.61,18.47,0.63c-1.511,1.181-2.72,2.351-2.72,2.351l18.81,12.659
		c0,0,6.38-3.489,7.71-7.189c1.309-0.331,2.517-0.977,3.52-1.88c0.2,4.37,1.36,9.1,5.4,9.21c1.012,0.021,2.014-0.177,2.941-0.58
		l30.76-6.09l-2.641,16.49l1.84,3.27c-0.93,13.91-2,28.68-2.939,41.67l-0.43,2.84l0.219,0.05c-1.459,20-2.629,35.15-2.629,35.15
		c1.723-3.283,4.395-5.97,7.67-7.71l0.199,29.68c0,0,1.541,46.931,1.541,53.33c0,6.4,0.209,20.69,0.209,20.69
		s3.291,17.49,5.25,23.25c1.961,5.76,3.5,32,3.5,32s4.6,7.25,2.631,10c-1.971,2.75,7.66,8.74,7.66,8.74s-6.131,8.319-6.57,13.869
		c-0.051,0.641,0.58,1.32,1.719,2c-0.359,0.29-0.729,0.58-1.139,0.86c-2.84,1.9-7,3.22-13.26,2.68
		c-17.07-1.5-29.102,14.29-18.602,17.49s42,3.84,42,3.84s9.541-5.949,17-3.27c-0.109,6.26,0.201,12,0.25,12.76l-0.09,0.07
		c-4.459,4-13,10.88-21.34,13.689c-12,4.051-14.66,20.48,0.871,22.61c15.529,2.13,38.279-2.56,38.279-2.56s11.811-8.74,20.779-10.66
		c8.971-1.92,16.631-6.19,15.102-11.311c-1-3.27-3.57-11.84-5.311-17.6c-0.1-0.347-0.199-0.68-0.301-1
		c0.271-0.6,0.541-1.22,0.791-1.86c0,0-4.59-23.89-0.871-29.859c3.721-5.971,1.75-65.71,1.75-65.71s-6.35-15.141-3.059-24.311
		c3.289-9.17-5.25-22.189-5.25-22.189s0.93-26.091,3.43-40.631c0.113-0.619,0.223-1.22,0.33-1.8
		c4.186-1.242,8.266-2.817,12.199-4.71c0,0,2.189-32.859,3.5-40.32c0.131-0.699,0.311-1.829,0.531-3.3l1-5.27l0,0l1.18-6l0,0
		l4-20.45l7.219-9.34l18.6-19C717.769,437.41,722.24,427.37,720.05,408.38z M433.21,291.05l-0.14,0.1
		c-0.021-0.072-0.038-0.146-0.051-0.22C433.078,290.978,433.142,291.018,433.21,291.05z M616.98,314.34l-0.721,1.57l2.631-2.62
		l-3.57,4l1.199-2.52L616.98,314.34z M599.22,351.04c-0.689,1.83-1.43,3.81-2.201,5.87l1.41-4.21L599.22,351.04z"/>
	<path fill="#585B8A" d="M541.83,410.87c0,0-2.45,16.31,4.9,16.52c7.35,0.21,12.26-12.58,12.26-12.58l-3-10.229L541.83,410.87z"/>
	<path opacity="0.2" enable-background="new    " d="M541.83,410.87c0,0-2.45,16.31,4.9,16.52c7.35,0.21,12.26-12.58,12.26-12.58
		l-3-10.229L541.83,410.87z"/>
	<path fill="#2D293D" d="M377.2,763.91c-13.08,0.57-30.141-14.21-30.141-14.21l-0.85-15.351c0,0-1.13,0.57-3.41-2.84
		c-1.53-2.29,0.67-11.78,2.28-17.75c0.78-2.92,1.42-5,1.42-5l28.7,7.68l1.37,3.631l11.14,29.619
		C387.71,749.689,390.27,763.34,377.2,763.91z"/>
	<path fill="#2D293D" d="M509.07,720.43c0,0-33.25,12.79-44,2.84c-10.75-9.949-18.761-7.109-18.761-7.109s-18.76,0.29-22.46-1.141
		c-2.18-0.829-1-7.939,0.36-13.6c0.92-3.91,1.92-7.14,1.92-7.14s32.68-11.09,37.8-4.271c1.538,2.004,3.377,3.758,5.45,5.2
		c5.92,4.28,15.17,8.16,29.8,14.13C519.3,717.58,509.07,720.43,509.07,720.43z"/>
	<path fill="#FFCDD3" d="M479.23,460.64l9.09,18.19c0,0,13.08,18.479-2.271,25.58c-15.35,7.1-15.06-40.92-15.06-40.92L479.23,460.64
		z"/>
	<path fill="#F37324" d="M441.14,302.9c0,0,9.95,4.55,15.92,23.59c5.971,19.04,13.931,51.45,13.931,51.45s5.399,36.66,4.54,45.76
		c-0.548,5.012-0.45,10.073,0.29,15.06l7.67,25.58l-15.351,5.4l-23.59-90.38L441.14,302.9z"/>
	<path opacity="0.1" enable-background="new    " d="M441.14,302.9c0,0,9.95,4.55,15.92,23.59
		c5.971,19.04,13.931,51.45,13.931,51.45s5.399,36.66,4.54,45.76c-0.548,5.012-0.45,10.073,0.29,15.06l7.67,25.58l-15.351,5.4
		l-23.59-90.38L441.14,302.9z"/>
	<path opacity="0.1" enable-background="new    " d="M375.2,716.45l1.37,3.63l-1.681,3.21c-6.54,2.84-22.739,0.57-22.739,0.57
		s-3-3.811-7.101-10.08c0.78-2.92,1.42-5,1.42-5L375.2,716.45z"/>
	<path opacity="0.1" enable-background="new    " d="M470.42,696.55c-8.29,18.78-36.47,11.811-44.3,9.46c-1.29-0.39-2-0.649-2-0.649
		s0.05-1.53,0.07-3.94c0.92-3.91,1.92-7.14,1.92-7.14s32.68-11.091,37.8-4.271c1.538,2.004,3.376,3.758,5.45,5.2
		C469.673,695.688,470.027,696.136,470.42,696.55z"/>
	<path fill="#3E3C55" d="M468.99,672.68c-6.82,14.2,1.43,22.17,1.43,22.17c-8.29,18.771-36.47,11.811-44.3,9.45
		c-1.29-0.38-2-0.64-2-0.64s0.57-19.62-1.42-29s-1.71-48.88-0.57-53.71s1.7-14.22,1.7-14.22s-0.85-11.08,0.57-16.48
		c0.87-2.971,0.058-6.181-2.12-8.38l-0.15-0.15c0,0-6.25,21.32-8.53,25c-2.279,3.681-3.119,22.17-3.409,25.58
		s-11.94,31.84-11.94,31.84s-4.54,13.07-5.39,16.761c-0.851,3.689-4.271,14.22-4.271,14.22l-13.7,26.439
		c-6.54,2.841-22.739,0.57-22.739,0.57s-3.12-4-7.391-10.52c-4.27-6.521-6.25-29.551-6.25-29.551s15.63-0.29,11.65-15.35
		c-3.98-15.06,3.41-26.72,3.13-31.84s3.41-21.88,5.4-24.44c1.989-2.56,1.699-13.359,1.13-19.33c-0.57-5.97-0.28-27-0.28-27
		s0.57-9.38,3.41-13.64s1.71-16.49,1.71-16.49s5.39-2.84,1.7-30.41c-3.69-27.569,6-63.38,6-63.38l0.33-5l0.52-8.1
		c0,0,81.29-5.12,87.83,1.13c1.709,1.734,3.112,3.746,4.15,5.95c2.237,4.81,3.817,9.898,4.699,15.13l3.41,86.12l3.41,63.38
		l-1.14,47.75C475.57,646.54,475.82,658.46,468.99,672.68z"/>
	<path opacity="0.1" enable-background="new    " d="M444.89,502.71l-8.529,184.74l-10.24,16.84c-1.29-0.38-2-0.64-2-0.64
		s0.57-19.62-1.42-29c-1.99-9.381-1.71-48.881-0.57-53.711c1.14-4.829,1.7-14.22,1.7-14.22s-0.85-11.08,0.57-16.479
		c0.87-2.972,0.058-6.181-2.12-8.38l0.14-1L444.89,502.71z"/>
	<path opacity="0.1" enable-background="new    " d="M353.03,701.1c0,0,22.17-8.81,25.58-6c3.409,2.811-26.141,7.101-26.141,7.101
		L353.03,701.1z"/>
	<path opacity="0.1" enable-background="new    " d="M462.46,677.79c-0.85,0.29-22.45,8-20.46,16.2S462.46,677.79,462.46,677.79z"/>
	<path fill="#FFCDD3" d="M394.96,257.29c0,0,7.24,17.48,3.41,26.44s41.35,24.3,41.35,24.3s-13.21-34.11-0.42-53.3
		S394.96,257.29,394.96,257.29z"/>
	<path fill="#505484" d="M659.5,763.34c-8.74,1.92-20.25,10.66-20.25,10.66s-22.17,4.689-37.309,2.56
		c-15.141-2.13-12.57-18.55-0.852-22.6c8.131-2.8,16.461-9.71,20.811-13.67c1.92-1.771,3.061-3,3.061-3l42.43-8.53
		c0,0,0.689,2.37,1.65,5.641c1.699,5.77,4.209,14.33,5.17,17.59C675.701,757.16,668.24,761.42,659.5,763.34z"/>
	<path fill="#505484" d="M648.63,730.51c0,0-17.91,1.92-25.371-2.34c-7.459-4.26-18.119,2.56-18.119,2.56s-30.699-0.64-40.93-3.84
		s1.49-19,18.119-17.479c6.061,0.55,10.16-0.78,12.93-2.681c2.895-1.982,4.91-5.006,5.631-8.439l36,2.13l5,12.76L648.63,730.51z"/>
	<path opacity="0.1" enable-background="new    " d="M642.441,719c0,0-41.842-6.84-47.182-12.27c2.895-1.983,4.91-5.007,5.631-8.44
		l36,2.13l5,12.76L642.441,719z"/>
	<path fill="#575988" d="M580.41,479.62l0.43,62.45c0,0,1.49,46.899,1.49,53.3c0,6.399,0.211,20.67,0.211,20.67
		s3.199,17.479,5.119,23.24c1.92,5.76,3.41,32,3.41,32s4.48,7.25,2.561,10s7.459,8.739,7.459,8.739s-6,8.32-6.389,13.86
		c-0.391,5.54,47.74,13.41,47.74,13.41l-18.75-192.271l-14.932-48.17L580.41,479.62z"/>
	<path opacity="0.1" enable-background="new    " d="M580.41,479.62l0.43,62.45c0,0,1.49,46.899,1.49,53.3
		c0,6.399,0.211,20.67,0.211,20.67s3.199,17.479,5.119,23.24c1.92,5.76,3.41,32,3.41,32s4.48,7.25,2.561,10s7.459,8.739,7.459,8.739
		s-6,8.32-6.389,13.86c-0.391,5.54,47.74,13.41,47.74,13.41l-18.75-192.271l-14.932-48.17L580.41,479.62z"/>
	<path opacity="0.1" enable-background="new    " d="M669.041,734.45c-13.93,33.21-47.061,7.58-47.061,7.58s0-0.641-0.08-1.74
		c1.92-1.771,3.061-3,3.061-3l42.43-8.53C667.39,728.76,668.08,731.18,669.041,734.45z"/>
	<path fill="#575988" d="M669.519,731.58c-13.648,35-47.539,8.74-47.539,8.74s-1.07-18.12,1.07-26.431
		c2.141-8.31-2.35-33.26-2.35-33.26s-2.561-22.17-4.9-27.28c-2.34-5.109-2.131-15.35-2.131-16.199c0-0.851,0.85-7.681-1.07-12.37
		c-1.92-4.69-3-16.2-3-16.2s0-16.2-1.92-25.79l-6.609-33l-11.939-67.58l3.73-0.64l66.83-11.721c0,0,12.58,64,8.309,70.561
		c-0.92,1.439-1.729,4.59-2.4,8.649c-2.439,14.521-3.35,40.591-3.35,40.591s8.311,13,5.121,22.17c-3.191,9.17,3,24.3,3,24.3
		s1.92,59.689-1.711,65.66C665.031,707.75,669.519,731.58,669.519,731.58z"/>
	<path fill="#D28690" d="M663.121,295.23c0,0-60.541,42.63-46.9,21.31c7.35-11.48,6-26.1,3.119-37.14
		c-1.455-5.615-3.465-11.072-6-16.29c0,0,51.441-21.88,44.621-2.27c-1.6,4.569-2.279,9.408-2,14.24
		C656.369,282.344,658.853,289.337,663.121,295.23z"/>
	<path fill="#D28690" d="M554.121,392.86c0,0-25.581-7.39-29.84-0.14c-4.261,7.25,1.279,23.16,9,25.721
		c7.72,2.56,25.44-8.671,25.44-8.671L554.121,392.86z"/>
	<path fill="#585B8A" d="M583.4,380.29l-10.66,9.81c0,0-18.549,1.7-23.879,0.42c0,0,4.908,32.83-2.131,36.88l43.061-8.74
		L583.4,380.29z"/>
	<path opacity="0.1" enable-background="new    " d="M583.4,380.29l-10.66,9.81c0,0-18.549,1.7-23.879,0.42
		c0,0,4.908,32.83-2.131,36.88l43.061-8.74L583.4,380.29z"/>
	<path opacity="0.1" enable-background="new    " d="M446.54,239.38c0,17.673-14.327,32-32,32c-16.42-7.89-32-14.31-32-32
		c-0.698-17.659,13.051-32.541,30.71-33.239c17.66-0.699,32.542,13.051,33.24,30.71c0.033,0.842,0.033,1.686,0,2.529H446.54z"/>
	<path fill="#FFCDD3" d="M446.54,238.52c0.011,17.64-14.28,31.949-31.92,31.96c-17.64,0.011-31.949-14.28-31.96-31.92
		c-0.012-17.64,14.279-31.949,31.92-31.96c9.575-0.006,18.648,4.285,24.72,11.69C443.973,223.997,446.53,231.144,446.54,238.52z"/>
	<path opacity="0.1" enable-background="new    " d="M465.19,434.19c-3.166,1.966-6.479,3.685-9.91,5.14c0,0-16.2-2.35-18.54,0.42
		s-23,3.84-23,3.84s-31.55-1.49-36.24-5.54c-1.45-1.174-3.063-2.131-4.79-2.84l0.521-8.1c0,0,81.289-5.12,87.829,1.13
		C462.763,429.977,464.158,431.988,465.19,434.19z"/>
	<path fill="#F37324" d="M469.14,428.46c-0.64,3.62-13.859,9.16-13.859,9.16s-16.2-2.34-18.54,0.43c-2.34,2.771-23,3.84-23,3.84
		s-31.55-1.5-36.24-5.55s-15.14-6-15.14-6s-5.33-37.94-3.19-46.25s-3.2-31.13-4.479-39.23c-1.28-8.1,3.619-30.48,9.59-34.1
		c5.97-3.62,14.5-15.78,19.609-19.4c4.311-3.05,9.07-7,10.46-8.19l0.41-0.34c0,0,0.86-6.61,4.271-10
		c3.41-3.39,34.739,21.53,34.739,21.53s0.221,1.92,2.351-1.7c0.479-0.81,4.61,5.15,5.33,7.67c0,0,17.05,29.85,18.12,36
		c1.069,6.15,5.54,26.22,6.39,31.12c0.22,1.26,0.58,5.68,1,11.6c0.08,1.16,0.15,2.39,0.24,3.67c0.63,9.82,1.31,22.36,1.72,31.839
		c0,1.08,0.09,2.12,0.12,3.12C469.256,421.27,469.289,424.867,469.14,428.46z"/>
	<path opacity="0.1" enable-background="new    " d="M360.89,351.5c0,0,11.721,14.28,15.561,14.28S360.89,351.5,360.89,351.5z"/>
	<path opacity="0.1" enable-background="new    " d="M385.58,382.2c0,0-19.19,20.89-16.63,24.729
		C371.51,410.77,385.58,382.2,385.58,382.2z"/>
	<path opacity="0.1" enable-background="new    " d="M371.51,423.77c0,0,22-24.09,23-32.399L371.51,423.77z"/>
	<path opacity="0.1" enable-background="new    " d="M399.22,425.47c0,0,25.37-13.43,27.5-24.09S399.22,425.47,399.22,425.47z"/>
	<path opacity="0.1" enable-background="new    " d="M431.41,295.87l-3.521,8.52l5.86,2.77l5.76,16.1c0,0,15.88,31.76,15.24,48.28
		s2.88,41.35,2.88,41.35l9.16-1.699l-4.32-48.59c-0.673-7.523-2.557-14.888-5.58-21.81c-7.319-16.76-20.939-47.7-21.8-47.7
		c-1.17,0-0.35,0.43-0.35,0.43L431.41,295.87z"/>
	<path fill="#575989" d="M432.26,295.01l-3.52,8.53l5.87,2.77l5.75,16.1c0,0,15.88,31.76,15.239,48.28
		c-0.64,16.52,2.881,41.35,2.881,41.35l9.17-1.7l-4.33-48.59c-0.665-7.523-2.546-14.889-5.57-21.81
		c-7.32-16.77-20.94-47.7-21.79-47.7c-1.18,0-0.36,0.43-0.36,0.43L432.26,295.01z"/>
	<path fill="#FFCDD3" d="M536.07,420.29c-4.46-0.34-15.16-5.75-19.41-8l-1.8-1l0.22-16.51c1.051-0.618,2.14-1.169,3.26-1.65
		c5.68-2.48,17.33-5.85,23.17,5C549.39,412.68,541.72,420.67,536.07,420.29z"/>
	<path opacity="0.1" enable-background="new    " d="M439.3,218.29c-0.458,0.287-0.962,0.493-1.49,0.61
		c-3.71,0.81-7.93-2.38-11.109-0.33c-1.94,1.26-2.391,3.87-2.65,6.17c-0.453,4-0.906,7.973-1.359,11.92
		c-0.096,1.405-0.392,2.789-0.88,4.11c-1.57,3.59-5.881,5.28-9.811,5.22c-1.539,0.109-3.06-0.394-4.23-1.4
		c-0.689-0.7-1.06-1.68-1.819-2.32c-5-4.19-6.521,6.08-5.2,9c2.12,4.77,9.65,9.37,6.49,15.43c-0.531,0.985-1.338,1.794-2.32,2.33
		c-16.865-5.282-26.256-23.235-20.974-40.101c5.281-16.865,23.235-26.255,40.101-20.974
		C430.034,209.83,435.339,213.424,439.3,218.29z"/>
	<path fill="#353045" d="M405.1,242.23c0.75,0.63,1.131,1.61,1.82,2.31c1.171,1.005,2.69,1.508,4.23,1.4
		c3.93,0.06,8.239-1.62,9.8-5.23c0.497-1.315,0.797-2.697,0.89-4.1l1.36-11.92c0.26-2.3,0.7-4.91,2.649-6.17
		c3.181-2,7.4,1.14,11.11,0.33c2.775-0.706,4.526-3.445,4-6.26c-0.43-1.91-1.89-3.42-2.64-5.24c-0.455-1.398-0.819-2.825-1.09-4.27
		c-2.07-7.76-11.181-12.12-19.101-10.82c-4.399,0.73-8.49,2.83-12.899,3.47c-3.16,0.46-6.391,0.16-9.58,0.5
		c-2.964,0.306-5.846,1.157-8.5,2.51c-0.697,0.309-1.313,0.774-1.801,1.36c-0.452,0.792-0.758,1.659-0.899,2.56
		c-1.07,4-4.51,6.95-7,10.32c-2.849,3.877-4.496,8.505-4.74,13.31c-0.098,1.227,0.017,2.462,0.34,3.65c0.21,0.7,0.54,1.38,0.7,2.1
		c0.49,2.19-0.63,4.38-1.18,6.56c-0.684,2.782-0.438,5.711,0.699,8.34c3.841,8.83,16.49,11.78,19.12,21.05
		c2.336,1.12,4.858,1.798,7.44,2c2.58,0.05,5.36-1.061,6.56-3.35c3.15-6-4.37-10.66-6.489-15.42
		C398.57,248.29,400.06,238.03,405.1,242.23z"/>
	<path opacity="0.1" enable-background="new    " d="M658.009,260.84c-1.598,4.569-2.277,9.408-2,14.24
		c-1.539,1.31-3.219-2.61-5-1.6c-4.879,2.82-10.52,9.53-16.559,9.53c-5.238,0.003-10.402-1.233-15.07-3.61
		c-1.457-5.615-3.467-11.072-6-16.29C613.38,263.11,664.83,241.23,658.009,260.84z"/>
	<path fill="#D28690" d="M667.669,248.05c0,18.369-14.891,33.26-33.26,33.26s-33.26-14.891-33.26-33.26
		c0-18.369,14.891-33.26,33.26-33.26c18.363-0.005,33.254,14.876,33.26,33.24C667.669,248.037,667.669,248.043,667.669,248.05z"/>
	<path fill="#F0F3F7" d="M666.25,302.62c0,0-6.26,6.82-7.109,7.38s-19,77-19.32,77.89c-0.32,0.89-21.609,69.91-21.609,69.91
		l-34.111,16.771l2.852-84.42l25-69.62c0,0,8.25-9.38,10.799-12.79c2.551-3.41,34.391-23.88,34.391-23.88l5.439,11.21L666.25,302.62
		z"/>
	<path opacity="0.1" enable-background="new    " d="M661.74,296.78l-39.221,28.08l-0.629-15.42
		c2.561-3.41,34.391-23.87,34.391-23.87L661.74,296.78z"/>
	<path fill="#F0F3F7" d="M662.589,295.07l-39.219,28.08l-0.611-15.41c2.561-3.42,34.391-23.88,34.391-23.88L662.589,295.07z"/>
	<path fill="#585B8A" d="M621.451,300.88l1.309,6.86l-8.77,8.91l7-15.67c0,0-15,10.45-19.5,13.22c-4.5,2.77-9,12.15-9.17,14.71
		c-0.17,2.56-7.25,41.14-7.25,41.14s-5.33,14.28-3.83,18.33s-8.1,131.74-8.1,131.74c2.598-5.021,7.297-8.624,12.82-9.83l-3.42-75.46
		c0,0,4.16-50.2,4.369-50.84c0.211-0.64,9.701-29.74,9.701-29.74L621.451,300.88z"/>
	<path opacity="0.1" enable-background="new    " d="M623.621,308.59l-0.68,14c0,0-9.49,29.95-12.682,34.85
		c-3.189,4.9-12.898,34.11-12.898,34.11l-5.471,50.74l-9.381,4.27l-4.619-8.51l7.68-49c0,0,14.49-41.35,16.631-45.62l10.689-22.52
		L623.621,308.59z"/>
	<path fill="#663D5C" d="M622.759,307.74l-0.67,14c0,0-9.49,29.95-12.689,34.85c-3.199,4.9-12.891,34.11-12.891,34.11l-5.439,50.729
		l-9.379,4.261L577,437.17l7.68-49c0,0,14.49-41.36,16.621-45.62l10.77-22.49L622.759,307.74z"/>
	<path fill="#D28690" d="M512.2,414.6l18.33,12.69c0,0,12.93-7.25,5.399-11.94c-7.529-4.689-14.21-5.399-16.63-5.399
		S512.2,414.6,512.2,414.6z"/>
	<path fill="#D28690" d="M525.89,391.14c-0.831,0.518-1.335,1.43-1.33,2.41c0,3.891,0.44,14.19,3.7,9.54
		c4-5.689,3.271-10.8,9.38-7.11c3.798,2.365,7.121,5.417,9.801,9l-1.701-12.221C545.74,392.76,533.18,386.56,525.89,391.14z"/>
	<path opacity="0.1" enable-background="new    " d="M668.019,540.37c-0.92,1.439-1.729,4.59-2.398,8.649
		c-37.381,11.211-64.73-12.489-64.73-12.489c-3.309-11.214-6.014-22.597-8.1-34.101c-0.67-3.939-0.521-11.58,0.1-20.899
		l66.83-11.721C659.72,469.81,672.291,533.76,668.019,540.37z"/>
	<path fill="#585B8A" d="M706.39,349.58c-1.699,5.55-1.061,16.84-1.061,16.84l-15.35,72.48c0,0-7.461,55.85-8.74,63.31
		s-3.41,40.29-3.41,40.29c-43.49,21.32-77-7.67-77-7.67c-3.309-11.217-6.012-22.604-8.1-34.11c-2.141-12.659,4.16-63.38,7.141-85.91
		c0.889-6.67,1.49-10.869,1.49-10.869l11.189-41.57c0,0,13.75-35.07,18.869-45.3c5.121-10.23,25.68-33.21,25.68-33.21
		c2.551-1.62,6.631,4.1,9.66,9.31c2.291,3.94,4,7.6,4,7.6s25.58,11.08,29.41,17s3.201,18.12,3.631,18.76
		C704.23,337.17,708.099,344.04,706.39,349.58z"/>
	<path opacity="0.1" enable-background="new    " d="M646.07,323.79c0,0,1.92,11.3-3,14.71c-4.75,3.3-40.109,72.83-42.311,77.17
		c0.891-6.68,1.49-10.88,1.49-10.88l11.191-41.56c0,0,13.76-35.07,18.869-45.31C637.419,307.68,658,284.71,658,284.71
		c2.551-1.62,6.621,4.1,9.65,9.31C663.08,303.51,653.55,321.45,646.07,323.79z"/>
	<path fill="#585B8A" d="M645.22,322.94c0,0,1.91,11.3-3,14.71s-40.1,72.82-42.33,77.16c0.891-6.67,1.49-10.869,1.49-10.869
		l11.189-41.57c0,0,13.75-35.07,18.871-45.3c5.119-10.23,25.68-33.21,25.68-33.21c2.549-1.62,6.629,4.1,9.66,9.31
		C662.23,302.65,652.691,320.6,645.22,322.94z"/>
	<polygon fill="#1F558D" points="695.951,425.05 683.919,487.64 683.919,487.65 682.769,493.64 682.769,493.65 680.179,507.12 
		669.13,504.78 663.98,503.69 592.71,488.59 587.47,487.48 575.509,484.95 577.849,469.41 578.82,462.95 587.451,405.65 	"/>
	<path fill="#D28690" d="M629.441,476.21c0,0-28.352,10.23-22.172,22.38c6.182,12.15,45.83-9.38,45.83-9.38L629.441,476.21z"/>
	<path opacity="0.1" enable-background="new    " d="M649.691,563.39c0,0.851,1.068,11.73,5.328,15.561
		C659.281,582.78,649.691,563.39,649.691,563.39z"/>
	<path opacity="0.1" enable-background="new    " d="M621.13,601.97c0,0,5.109,14.07,25.359,19.83S621.13,601.97,621.13,601.97z"/>
	<path opacity="0.1" enable-background="new    " d="M667.669,248.05c0.004,11.901-6.354,22.896-16.67,28.83
		c-1.91-1.069-3.605-2.482-5-4.17c-1.449-1.76-2.58-4.16-1.709-6.26c0.699-1.69,2.549-2.76,3-4.51c0.211-1.07,0.156-2.176-0.16-3.22
		c-0.371-1.65-0.721-3.3-1.08-4.94c-0.311-1.4-0.859-3.05-2.25-3.39c-1.391-0.34-2.551,0.82-3.641,1.68
		c-2.67,2.11-7.789,3.54-11,1.81c-3.209-1.73-2.311-7.52-2.83-10.65c-0.014-0.55-0.27-1.067-0.699-1.41
		c-0.467-0.155-0.967-0.189-1.451-0.1c-1.729,0-3.119-1.55-3.619-3.21c-0.354-1.694-0.549-3.419-0.58-5.15
		c-0.189-1.73-0.82-3.56-2.301-4.45c-1.182-0.551-2.492-0.765-3.789-0.62l-6.27,0.07c10.922-14.768,31.75-17.885,46.518-6.961
		c8.463,6.26,13.463,16.156,13.482,26.682L667.669,248.05z"/>
	<path fill="#353045" d="M641.05,252.07c1.09-0.86,2.289-2,3.641-1.67c1.35,0.33,1.93,2,2.238,3.38l1.08,4.93
		c0.32,1.047,0.379,2.156,0.17,3.23c-0.51,1.76-2.35,2.82-3.059,4.51c-0.871,2.1,0.27,4.5,1.709,6.25
		c2.627,3.165,6.258,5.336,10.291,6.15c1.053,0.253,2.146,0.277,3.209,0.07c2.381-0.55,4-2.74,5.281-4.79
		c6.609-10.3,12.299-21.59,13.459-33.77c0.318-2.484,0.203-5.005-0.34-7.45c-0.541-1.9-1.307-3.73-2.279-5.45
		c-1.703-3.514-3.865-6.786-6.432-9.73c-4.549-4.9-10.828-7.91-17.279-9.69c-7.254-2.013-14.83-2.607-22.311-1.75
		c-2,0.23-3.92,0.56-5.889,0.69c-2.475,0.115-4.953,0.075-7.42-0.12l-14.721-0.88c-0.84,1.71,0,3.74,1,5.34s2.24,3.26,2.16,5.16
		s-1.43,3.4-2.471,5c-1.039,1.6-1.83,3.67-0.789,5.23c1.039,1.56,3.16,1.66,5,1.64l7.42-0.08c1.293-0.133,2.596,0.092,3.77,0.65
		c1.48,0.89,2.109,2.73,2.301,4.45c0.041,1.73,0.234,3.454,0.58,5.15c0.51,1.66,1.889,3.23,3.619,3.21
		c0.484-0.097,0.986-0.059,1.451,0.11c0.43,0.339,0.686,0.853,0.699,1.4c0.52,3.13-0.439,8.91,2.83,10.65
		C633.24,255.63,638.38,254.18,641.05,252.07z"/>
	<path opacity="0.1" enable-background="new    " d="M683.32,317.76c-7.572-0.804-14.693,3.742-17.15,10.95
		c-4,11.39-10.67,31.94-9,40.06c2.35,11.51,5.121,30.7,5.121,30.7s12.15,7,6,14.061c-6.15,7.06-7.891,17.06-7.891,17.06
		s-7.891,3.41-9.59,10.66s-13.221,17.26-13.221,17.26l-17.26,17.271c0,0,28.561,29,34.32,30.479l17.689-20.68l20.891-27.71
		l18.119-19c0,0,4.262-10,2.131-29s-10.449-37.09-10.449-37.09l0.639-6.4C703.669,366.38,705.63,320.53,683.32,317.76z"/>
	<path fill="#585B8A" d="M685.019,317.76c-7.564-0.794-14.674,3.75-17.129,10.95c-4,11.39-10.67,31.94-9,40.06
		c2.34,11.51,5.109,30.7,5.109,30.7s12.15,7,6,14.061c-6.15,7.06-7.879,17.06-7.879,17.06s-7.891,3.41-9.602,10.66
		c-1.709,7.25-13.209,17.26-13.209,17.26l-17.27,17.271c0,0,28.559,29,34.32,30.479l17.689-20.68l20.84-27.71l18.119-19
		c0,0,4.271-10,2.131-29s-10.439-37.09-10.439-37.09l0.639-6.4C705.339,366.38,707.33,320.53,685.019,317.76z"/>
	<path opacity="0.1" enable-background="new    " d="M667.169,382.63c0,0,18.121,22.16,25.801,17.26
		C700.65,394.99,667.169,382.63,667.169,382.63z"/>
	<path opacity="0.1" enable-background="new    " d="M673.99,365.57c1.92,0.64,17.701,22.6,25.801,20S673.99,365.57,673.99,365.57z"
		/>
	<path opacity="0.1" enable-background="new    " d="M678.47,403.29c0,0,1.07,12.58,14.07,10.87S678.47,403.29,678.47,403.29z"/>
	<polygon opacity="0.1" enable-background="new    " points="621.019,301.83 613.99,317.5 622.769,308.59 	"/>
	<polygon fill="#F0F3F7" points="621.019,300.98 613.99,316.65 622.769,307.74 	"/>
	<polygon opacity="0.3" enable-background="new    " points="592.71,488.59 587.47,487.48 577.849,469.41 578.82,462.95 	"/>
	<polygon opacity="0.3" enable-background="new    " points="683.919,487.65 682.769,493.64 682.769,493.65 669.13,504.78 
		663.98,503.69 	"/>
	<path opacity="0.1" enable-background="new    " d="M469.01,417.72c-2.64,0.44-5.2,0.84-7.54,1.141
		c-13,1.71-43.92-13.641-43.92-13.641s-37.729-31.55-48.6-61.39c-10.87-29.84,13-34.32,13-34.32c9-5.12,28.569,9.16,31.34,11.51
		c2.77,2.35,5.12,8.31,4.9,12.15c-0.221,3.84,6.399,8.74,6.399,8.74s11.3,19.61,14.07,21.74c2.77,2.13,3.41,4.05,4.26,7.68
		c0.85,3.63,8.311,6.61,11.51,6.39c3.2-0.22,7,1.07,7,2.77c0,1.37,3.131,2.05,5.7,2.27C467.89,393.69,468.64,408.01,469.01,417.72z"
		/>
	<path opacity="0.1" enable-background="new    " d="M468.89,414.6c-2,0.32-3.92,0.61-5.72,0.851
		c-13,1.71-43.91-13.641-43.91-13.641s-37.729-31.55-48.6-61.39s13-34.32,13-34.32c9-5.12,28.56,9.16,31.33,11.51
		c2.77,2.35,5.12,8.31,4.91,12.15c-0.21,3.84,6.39,8.74,6.39,8.74s11.3,19.61,14.07,21.74c2.77,2.13,3.409,4.05,4.27,7.68
		s8.311,6.6,11.51,6.39c3.2-0.21,7,1.07,7,2.77c0,1,1.78,1.67,3.761,2c0.08,1.16,0.149,2.39,0.239,3.67
		C467.8,392.58,468.48,405.12,468.89,414.6z"/>
	<path opacity="0.1" enable-background="new    " d="M518.34,393.13l-0.81,19.16h-0.87l-1.8-1l0.22-16.51
		C516.131,394.162,517.22,393.611,518.34,393.13z"/>
	<path fill="#F37324" d="M381.95,307.8c0,0-23.87,4.48-13,34.32c10.87,29.84,48.6,61.399,48.6,61.399s30.91,15.341,43.92,13.641
		c13.011-1.7,32.82-6.18,35.38-5.54c2.561,0.64,19.83,0.64,19.83,0.64l0.851-20l-20-1.07l-10.23-2.13c0,0-3.63-3-5.76-2.56
		s-6.6-2.56-6.6-2.56s-3.42-2.77-6-2.77s-7.46-0.64-7.46-2.34c0-1.7-3.841-3-7-2.77c-3.16,0.23-10.711-2.77-11.591-6.44
		s-1.489-5.54-4.26-7.67c-2.77-2.13-14.07-21.75-14.07-21.75s-6.609-4.9-6.399-8.73c0.21-3.83-2.13-9.81-4.9-12.16
		C410.49,316.96,390.89,302.69,381.95,307.8z"/>
	<path opacity="0.1" enable-background="new    " d="M443.35,376.44c0,0-9.17,9.17-6.83,10.87L443.35,376.44z"/>
	<path opacity="0.1" enable-background="new    " d="M453.15,383.69c0,0-11.94,9.17-8.74,9.81S453.15,383.69,453.15,383.69z"/>
	<path opacity="0.1" enable-background="new    " d="M432.89,397.29c1.71,0.86,27.07,16,36.67,15.78L432.89,397.29z"/>
	<path opacity="0.1" enable-background="new    " d="M434.61,296.08c0,0-4.48,14.71-6.19,14.71c-1.34,0-23.84-18.22-33.229-25.88
		l0.409-0.34c0,0,0.851-6.61,4.261-10C403.27,271.18,434.61,296.08,434.61,296.08z"/>
	<path fill="#F37324" d="M433.75,294.37c0,0-4.47,14.71-6.18,14.71c-1.351,0-23.851-18.22-33.24-25.88l0.41-0.34
		c0,0,0.859-6.61,4.27-10S433.75,294.37,433.75,294.37z"/>
	<g opacity="0.15">
		<path d="M373.38,246.83L373.38,246.83c3,6.85,11.26,10.17,16.05,15.63C386.58,255.75,378.25,252.46,373.38,246.83z"/>
		<path d="M403.95,262.61c-1.19,2.29-4,3.4-6.561,3.35c-2.275-0.163-4.504-0.732-6.58-1.68c0.753,1.11,1.327,2.332,1.7,3.62
			c2.335,1.122,4.857,1.8,7.44,2c2.59,0.06,5.37-1.05,6.56-3.35c1.91-3.65-0.08-6.77-2.41-9.72
			C404.98,258.669,404.925,260.819,403.95,262.61z"/>
		<path d="M441.06,212.49c-0.43-1.92-1.89-3.43-2.64-5.24c-0.459-1.4-0.823-2.831-1.09-4.28c-0.568-2.049-1.621-3.933-3.07-5.49
			c0.201,0.492,0.372,0.997,0.51,1.51c0.28,1.456,0.655,2.892,1.12,4.3c0.75,1.81,2.21,3.32,2.641,5.24
			c0.525,2.815-1.225,5.555-4,6.26c-3.7,0.81-7.92-2.39-11.101-0.33c-1.949,1.25-2.399,3.86-2.66,6.16
			c-0.446,4-0.899,7.977-1.359,11.93c-0.091,1.403-0.387,2.784-0.88,4.1c-1.57,3.6-5.88,5.29-9.811,5.23
			c-1.535,0.103-3.05-0.4-4.22-1.4c-0.568-0.805-1.18-1.58-1.83-2.32c-5-4.2-6.52,6.07-5.2,9c0.661,1.318,1.48,2.55,2.44,3.67
			c-1.101-3.3,0.439-12.8,5.32-8.73c0.65,0.738,1.258,1.513,1.819,2.32c1.175,0.999,2.691,1.501,4.23,1.4
			c3.93,0.06,8.239-1.63,9.81-5.23c0.494-1.319,0.791-2.704,0.88-4.11c0.454-4,0.907-7.973,1.36-11.92c0.26-2.3,0.71-4.91,2.65-6.16
			c3.189-2.06,7.409,1.14,11.109,0.32C439.843,218.006,441.576,215.287,441.06,212.49z"/>
	</g>
	<path opacity="0.1" enable-background="new    " d="M662.46,276.37c-1.064,0.198-2.158,0.171-3.211-0.08
		c-4.027-0.813-7.654-2.98-10.279-6.14c-1.451-1.76-2.59-4.16-1.711-6.26c0.701-1.69,2.541-2.75,3-4.51
		c0.209-1.074,0.15-2.184-0.17-3.23l-1.08-4.93c-0.309-1.4-0.85-3.05-2.24-3.38c-1.389-0.33-2.549,0.81-3.639,1.67
		c-2.67,2.11-7.801,3.55-11,1.81c-3.201-1.74-2.311-7.52-2.83-10.65c-0.018-0.546-0.273-1.058-0.701-1.4
		c-0.469-0.163-0.971-0.201-1.459-0.11c-1.73,0-3.109-1.55-3.621-3.21c-0.346-1.696-0.537-3.42-0.568-5.15
		c-0.201-1.72-0.82-3.56-2.311-4.45c-1.176-0.553-2.479-0.778-3.77-0.65l-7.42,0.08c-1.83,0-4-0.12-5-1.64s-0.262-3.68,0.789-5.23
		c1.051-1.55,2.381-3.09,2.471-5c0.09-1.91-1.15-3.56-2.16-5.16c-0.58-0.875-1.006-1.842-1.26-2.86l-2.131-0.13
		c-0.83,1.7,0,3.73,1,5.34c1,1.61,2.25,3.26,2.16,5.15s-1.42,3.41-2.471,5c-1.049,1.59-1.818,3.67-0.779,5.23s3.15,1.67,5,1.65
		l7.42-0.09c1.293-0.125,2.596,0.103,3.77,0.66c1.49,0.89,2.121,2.729,2.311,4.45c0.031,1.731,0.227,3.456,0.58,5.15
		c0.5,1.65,1.891,3.23,3.619,3.2c0.486-0.086,0.984-0.048,1.451,0.11c0.428,0.345,0.684,0.86,0.699,1.41
		c0.52,3.12-0.439,8.91,2.83,10.65s8.371,0.3,11-1.81c1.09-0.86,2.301-2,3.65-1.68c1.35,0.32,1.93,2,2.23,3.38l1.09,4.94
		c0.316,1.047,0.371,2.156,0.16,3.23c-0.5,1.75-2.35,2.82-3.051,4.5c-0.869,2.1,0.26,4.51,1.711,6.26
		c2.643,3.173,6.297,5.341,10.35,6.14c1.053,0.251,2.146,0.278,3.209,0.08c1.721-0.524,3.195-1.645,4.16-3.16
		C663.714,275.929,663.105,276.207,662.46,276.37z"/>
	<ellipse opacity="0.1" fill="#6C63FF" enable-background="new    " cx="801.201" cy="767.34" rx="70" ry="10.74"/>
	<ellipse opacity="0.1" fill="#6C63FF" enable-background="new    " cx="1000.191" cy="721.84" rx="54.6" ry="8.38"/>
	<ellipse opacity="0.1" fill="#6C63FF" enable-background="new    " cx="991.201" cy="805.34" rx="92.59" ry="14.21"/>
	<circle opacity="0.1" fill="#6C63FF" enable-background="new    " cx="50" cy="52" r="10.46"/>
	<circle opacity="0.1" fill="#6C63FF" enable-background="new    " cx="1054.57" cy="381.09" r="14"/>
	<circle opacity="0.1" fill="#6C63FF" enable-background="new    " cx="1081.56" cy="351.09" r="10.22"/>
	<circle opacity="0.1" fill="#6C63FF" enable-background="new    " cx="68" cy="14" r="14"/>
	<circle opacity="0.1" fill="#6C63FF" enable-background="new    " cx="14" cy="78" r="14"/>
	<path fill="none" stroke="#535461" stroke-width="2" stroke-miterlimit="10" d="M115.092,724.981c0,0-13.191-64.549,12.781-109.024
		c10.901-18.663,15.826-40.242,13.352-61.716c-1.19-10.197-3.312-20.264-6.34-30.072"/>
	<path fill="#FBC166" d="M151.079,496.082c-0.657,7.721-16.535,28.884-16.535,28.884s-12.072-23.57-11.417-31.262
		c0.477-7.731,7.133-13.613,14.864-13.135c7.732,0.478,13.613,7.133,13.135,14.865c-0.014,0.216-0.032,0.432-0.055,0.646
		L151.079,496.082z"/>
	<path fill="#FBC166" d="M174.013,564.93c-6.009,4.891-32.282,8.181-32.282,8.181s8.577-25.053,14.587-29.942
		c5.884-5.039,14.739-4.352,19.777,1.531c5.039,5.886,4.353,14.739-1.532,19.778c-0.18,0.153-0.361,0.301-0.548,0.445
		L174.013,564.93z"/>
	<path fill="#FBC166" d="M156.525,626.589c-7.189,2.888-33.254-1.746-33.254-1.746s15.61-21.39,22.799-24.276
		c7.243-2.746,15.342,0.9,18.088,8.144c2.668,7.04-0.696,14.933-7.625,17.879H156.525z"/>
	<path fill="#FBC166" d="M144.667,672.266c-6.593,4.059-33.075,3.896-33.075,3.896s11.77-23.717,18.363-27.781
		c6.628-4.01,15.252-1.888,19.262,4.74C153.182,659.675,151.154,668.197,144.667,672.266z"/>
	<path fill="#FBC166" d="M107.647,543.962c6.409,4.343,32.876,5.327,32.876,5.327s-10.73-24.205-17.141-28.555
		c-6.414-4.346-15.136-2.668-19.483,3.746C99.556,530.895,101.232,539.618,107.647,543.962z"/>
	<path fill="#FBC166" d="M101.943,595.828c6.599,4.06,33.07,3.896,33.07,3.896s-11.771-23.719-18.37-27.778
		c-6.699-3.893-15.284-1.618-19.175,5.079C93.713,583.484,95.681,591.753,101.943,595.828z"/>
	<path fill="#FBC166" d="M83.256,641.262c5.812,5.114,31.942,9.426,31.942,9.426s-7.597-25.362-13.408-30.483
		c-5.855-5.071-14.714-4.437-19.786,1.42C76.991,627.414,77.547,636.155,83.256,641.262z"/>
	<path fill="none" stroke="#535461" stroke-width="2" stroke-miterlimit="10" d="M100.731,724.423c0,0-23.093-26.826-22.556-54.506
		c0.298-11.604-3.174-22.992-9.898-32.454c-3.227-4.467-6.854-8.629-10.839-12.434"/>
	<path fill="#FBC166" d="M57.663,607.584c1.714,3.796-0.196,17.897-0.196,17.897s-11.846-7.897-13.558-11.686
		c-1.715-3.798-0.025-8.267,3.771-9.982C51.479,602.099,55.948,603.785,57.663,607.584z"/>
	<path fill="#FBC166" d="M78.508,623.47c-0.625,4.116-9.885,14.922-9.885,14.922s-5.646-13.065-5.021-17.182
		c0.437-4.145,4.151-7.149,8.295-6.713c4.144,0.437,7.149,4.149,6.713,8.294C78.586,623.019,78.552,623.245,78.508,623.47z"/>
	<path fill="#FBC166" d="M94.228,659.596c-2.62,3.236-16.065,7.894-16.065,7.894s1.727-14.125,4.338-17.359
		c2.755-3.126,7.523-3.429,10.65-0.674c2.938,2.589,3.407,6.997,1.08,10.146L94.228,659.596z"/>
	<path fill="#FBC166" d="M99.962,689.617c-2.035,3.634-14.501,10.49-14.501,10.49s-0.689-14.21,1.345-17.845
		c2.207-3.534,6.861-4.61,10.396-2.403C100.497,681.916,101.692,686.139,99.962,689.617z"/>
	<path fill="#FBC166" d="M54.535,645.64c3.943,1.399,17.829-1.568,17.829-1.568s-8.789-11.19-12.704-12.602
		c-3.848-1.6-8.264,0.225-9.862,4.073c-1.598,3.849,0.225,8.265,4.074,9.862c0.217,0.091,0.441,0.172,0.667,0.241L54.535,645.64z"/>
	<path fill="#FBC166" d="M61.69,680.658c4.161,0.174,16.544-6.835,16.544-6.835s-11.74-8.044-15.893-8.221
		c-4.167-0.001-7.545,3.376-7.546,7.543c0,3.917,2.997,7.184,6.898,7.52L61.69,680.658z"/>
	<path fill="#FBC166" d="M73.323,713.744c4.072,0.877,17.458-3.944,17.458-3.944s-10.235-9.906-14.28-10.795
		c-4.106-0.718-8.015,2.029-8.732,6.134C67.093,709.017,69.509,712.765,73.323,713.744z"/>
	<ellipse opacity="0.1" fill="#6C63FF" enable-background="new    " cx="103.965" cy="766.189" rx="46.781" ry="7.176"/>
	<path fill="#1F558D" d="M128.049,720.721l-0.226,1.827l-0.31,2.581l-0.128,1.078l-0.318,2.581l-0.136,1.078l-0.317,2.573
		l-3.577,29.352c-0.324,2.617-4.602,4.662-9.763,4.662H94.669c-5.168,0-9.439-2.045-9.756-4.662l-3.591-29.352l-0.31-2.573
		l-0.128-1.078l-0.324-2.581l-0.128-1.078l-0.317-2.581l-0.22-1.827c-0.181-1.509,2.136-2.73,5.055-2.73h38.074
		C125.914,717.99,128.238,719.235,128.049,720.721z"/>
	<polygon fill="#9D9CB5" points="127.824,722.548 127.505,725.129 80.424,725.129 80.115,722.548 	"/>
	<polygon fill="#9D9CB5" points="127.377,726.2 127.069,728.788 80.876,728.788 80.56,726.2 	"/>
	<polygon fill="#9D9CB5" points="126.925,729.859 126.615,732.439 81.322,732.439 81.005,729.859 	"/>
</g>
</svg>
